<svg xmlns="http://www.w3.org/2000/svg" viewBox="0 0 32 32" shape-rendering="crispEdges">
	<defs>
		<g id="eye_icon">
			<rect width="18" height="18" x="1" y="1" fill="#aaac" />
			<g>
				<animateTransform attributeName="transform" type="rotate" from="0 10 10" to="360 10 10" dur="0.5s" repeatCount="indefinite" />
				<g id="eye_core">
					<animateTransform attributeName="transform" type="rotate" from="0 11 9" to="-360 11 9" dur="0.5s" repeatCount="indefinite" />
					<path d="M9,6h4v1h1v4h-1v1h-4v-1h-1v-4h1v-1zM9,9h1v-1h-1v1z" fill="#000000" fill-opacity="1.000" fill-rule="evenodd" />
					<path d="M9,8h1v1h-1v-1z" fill="#fdfdfd" fill-opacity="1.000" fill-rule="evenodd" />
				</g>
			</g>
			<path d="M1,0h18v1h1v18h-1v1h-18v-1h-1v-18h1v-1zM1,18h1v1h16v-1h1v-16h-1v-1h-16v1h-1v16z" fill="#131313" fill-opacity="1.000" fill-rule="evenodd" />
			<path d="M2,1h16v1h-16v-1zM1,2h1v16h-1v-16z" fill="#f7f7f7" fill-opacity="1.000" fill-rule="evenodd" />
			<path d="M2,2h16v16h-16v-16zM3,11h1v1h1v1h2v1h6v-1h2v-1h1v-1h1v-2h-1v-1h-1v-1h-2v-1h-6v1h-2v1h-1v1h-1v2z" fill="#c6c6c6" fill-opacity="1.000" fill-rule="evenodd" />
			<path d="M18,2h1v16h-1v-16zM2,18h16v1h-16v-1z" fill="#656465" fill-opacity="1.000" fill-rule="evenodd" />
			<path d="M7,6h6v1h2v1h1v1h1v2h-1v-1h-1v-1h-1v-1h-8v1h-1v1h-1v1h-1v-2h1v-1h1v-1h2v-1zM4,11h1v1h-1v-1zM15,11h1v1h-1v-1zM5,12h2v1h-2v-1zM13,12h2v1h-2v-1zM7,13h6v1h-6v-1z" fill="#000000" fill-opacity="1.000" fill-rule="evenodd" />
		</g>
	</defs>

	<use id="right-a" href="#eye_icon" x="11" y="10" opacity="0.8" />
	<use id="right-b" href="#eye_icon" x="9" y="0" opacity="0.8" />
	<use id="left-a" href="#eye_icon" x="2" y="2" opacity="0.8" />
	<use id="left-b" href="#eye_icon" x="1" y="11" opacity="0.8" />
	<use id="top" href="#eye_icon" x="6" y="7" opacity="0.96" />
</svg>
